HIERARCHY
ROOT SpineBase
{
  OFFSET 0.000000 0.000000 0.000000
  CHANNELS 6 Xposition Yposition Zposition Zrotation Xrotation Yrotation
  JOINT SpineMid
  {
    OFFSET -0.000000 31.891940 0.000000
    CHANNELS 3 Zrotation Xrotation Yrotation
    JOINT SpineShoulder
    {
      OFFSET 0.139223 23.641468 -0.700879
      CHANNELS 3 Zrotation Xrotation Yrotation
      JOINT Neck
      {
        OFFSET 0.090104 7.818171 -0.570312
        CHANNELS 3 Zrotation Xrotation Yrotation
        JOINT Head
        {
          OFFSET -5.267532 14.178160 -0.237389
          CHANNELS 3 Zrotation Xrotation Yrotation
          End Site
          {
            OFFSET 0 0 0
          }
        }
      }
      JOINT ShoulderLeft
      {
        OFFSET -16.564944 -6.511085 7.163883
        CHANNELS 3 Zrotation Xrotation Yrotation
        JOINT ElbowLeft
        {
          OFFSET -1.073437 -31.559200 2.683680
          CHANNELS 3 Zrotation Xrotation Yrotation
          JOINT WristLeft
          {
            OFFSET -4.901681 -25.732536 -5.796137
            CHANNELS 3 Zrotation Xrotation Yrotation
            JOINT HandLeft
            {
              OFFSET 1.064004 -5.735976 -2.458359
              CHANNELS 3 Zrotation Xrotation Yrotation
              JOINT HandTipLeft
              {
                OFFSET -3.575353 -7.077270 -3.929743
                CHANNELS 3 Zrotation Xrotation Yrotation
                End Site
                {
                  OFFSET 0 0 0
                }
              }
              JOINT ThumbLeft
              {
                OFFSET -1.949536 3.315853 -0.280141
                CHANNELS 3 Zrotation Xrotation Yrotation
                End Site
                {
                  OFFSET 0 0 0
                }
              }
            }
          }
        }
      }
      JOINT ShoulderRight
      {
        OFFSET 14.326346 -3.503908 -9.137831
        CHANNELS 3 Zrotation Xrotation Yrotation
        JOINT ElbowRight
        {
          OFFSET 7.301170 -26.347627 -2.780454
          CHANNELS 3 Zrotation Xrotation Yrotation
          JOINT WristRight
          {
            OFFSET 0.064531 -23.400102 -5.552140
            CHANNELS 3 Zrotation Xrotation Yrotation
            JOINT HandRight
            {
              OFFSET -0.878473 -7.271196 -0.399842
              CHANNELS 3 Zrotation Xrotation Yrotation
              JOINT HandTipRight
              {
                OFFSET 0.054252 -7.371709 -0.840159
                CHANNELS 3 Zrotation Xrotation Yrotation
                End Site
                {
                  OFFSET 0 0 0
                }
              }
              JOINT ThumbRight
              {
                OFFSET -2.157122 -1.733084 -3.145698
                CHANNELS 3 Zrotation Xrotation Yrotation
                End Site
                {
                  OFFSET 0 0 0
                }
              }
            }
          }
        }
      }
    }
  }
  JOINT HipLeft
  {
    OFFSET -6.763936 0.104153 -0.689722
    CHANNELS 3 Zrotation Xrotation Yrotation
    JOINT KneeLeft
    {
      OFFSET -1.675140 -33.220960 2.809344
      CHANNELS 3 Zrotation Xrotation Yrotation
      JOINT AnkleLeft
      {
        OFFSET 14.485628 -37.604079 8.355757
        CHANNELS 3 Zrotation Xrotation Yrotation
        JOINT FootLeft
        {
          OFFSET 0.031614 -6.184496 -4.130444
          CHANNELS 3 Zrotation Xrotation Yrotation
          End Site
          {
            OFFSET 0 0 0
          }
        }
      }
    }
  }
  JOINT HipRight
  {
    OFFSET 7.315926 1.618894 -6.481281
    CHANNELS 3 Zrotation Xrotation Yrotation
    JOINT KneeRight
    {
      OFFSET 8.941532 -30.337147 -0.946986
      CHANNELS 3 Zrotation Xrotation Yrotation
      JOINT AnkleRight
      {
        OFFSET 6.235246 -38.443421 8.855381
        CHANNELS 3 Zrotation Xrotation Yrotation
        JOINT FootRight
        {
          OFFSET -3.614143 -1.970912 -11.623727
          CHANNELS 3 Zrotation Xrotation Yrotation
          End Site
          {
            OFFSET 0 0 0
          }
        }
      }
    }
  }
}
MOTION
Frames: 15
Frame Time: 0.033333
-17.680668 75.752603 344.953503 8.073632 -3.757382 27.093458 0.637256 -0.106153 -26.582688 0.425814 -0.201968 0.432179 11.034418 -10.335613 -3.912781 0.000000 0.000000 0.000000 -43.744669 20.212655 3.576131 120.558825 54.434955 -70.725963 -18.173935 -19.119882 16.192633 34.218317 -8.543259 -44.730257 0.000000 0.000000 0.000000 0.000000 0.000000 0.000000 -76.453505 64.907318 73.695716 -75.272527 -21.306204 -75.176262 20.284867 -15.859332 -17.261811 -16.341735 2.146406 6.074233 0.000000 0.000000 0.000000 0.000000 0.000000 0.000000 0.531168 5.419749 -26.695668 -19.438319 1.695069 -2.458292 15.122865 8.162869 0.936776 0.000000 0.000000 0.000000 -7.191093 10.022114 -25.566601 -2.335906 0.051336 -1.590681 12.596662 -22.804412 4.671332 0.000000 0.000000 0.000000
-17.558911 75.857036 344.994021 8.313531 -3.878249 29.671911 0.644810 -0.170235 -29.135470 0.325208 -0.299125 0.449277 12.875466 -10.179652 -3.840008 0.000000 0.000000 0.000000 -39.917719 20.513066 3.190521 112.540935 57.136892 -69.880643 -11.645918 -23.546890 20.459873 35.952422 -3.747897 -49.977380 0.000000 0.000000 0.000000 0.000000 0.000000 0.000000 -77.094488 57.873741 68.273725 -64.245765 -28.830331 -69.791835 17.865887 -16.149459 -16.368134 -14.248789 -2.338159 2.949591 0.000000 0.000000 0.000000 0.000000 0.000000 0.000000 0.815379 6.356415 -29.388183 -19.349462 0.921087 -2.664975 12.638889 11.460075 2.689940 0.000000 0.000000 0.000000 -7.188299 10.006146 -28.270683 -2.325555 0.617615 -1.372461 12.273998 -22.009853 4.447729 0.000000 0.000000 0.000000
-17.424033 76.005494 344.969894 8.551788 -3.916935 32.153725 0.496519 -0.260611 -31.588704 0.272004 -0.364394 0.460558 15.156590 -9.946423 -3.732059 0.000000 0.000000 0.000000 -36.612807 20.353667 2.757329 104.701667 59.573002 -68.478183 -4.421592 -26.091119 24.800444 30.250168 -0.027506 -51.993636 0.000000 0.000000 0.000000 0.000000 0.000000 0.000000 -76.335193 50.411296 61.071607 -49.980180 -35.305562 -60.220574 11.553295 -13.756779 -14.814450 -9.355081 -7.356998 -0.960189 0.000000 0.000000 0.000000 0.000000 0.000000 0.000000 1.037444 7.109734 -31.972119 -19.178170 0.254412 -2.834004 11.419887 13.760163 3.585697 0.000000 0.000000 0.000000 -7.292692 9.905581 -30.886308 -2.286374 1.106515 -1.161414 11.565881 -20.157879 4.537050 0.000000 0.000000 0.000000
-17.289816 76.186502 344.885573 8.778668 -3.935243 34.439950 0.212741 -0.365193 -33.840176 0.230989 -0.402174 0.465389 17.784677 -9.363216 -3.603087 0.000000 0.000000 0.000000 -34.463951 19.563515 2.394664 98.563750 61.810946 -67.329193 4.303057 -28.822852 29.862586 15.350877 5.920753 -51.000498 0.000000 0.000000 0.000000 0.000000 0.000000 0.000000 -73.834132 43.889141 53.190461 -37.032604 -37.658652 -49.161967 6.246539 -9.126998 -12.831654 -5.707385 -13.880135 -4.932913 0.000000 0.000000 0.000000 0.000000 0.000000 0.000000 1.192180 7.748830 -34.345717 -18.911932 -0.323271 -2.970771 11.111905 15.173270 3.817472 0.000000 0.000000 0.000000 -7.554533 9.758555 -33.307915 -2.143823 1.640605 -0.923388 10.728101 -18.052070 5.070504 0.000000 0.000000 0.000000
-17.175846 76.282691 344.739973 9.110610 -3.861390 36.495401 0.156681 -0.570152 -35.864224 0.364302 -0.311239 0.481570 18.515500 -9.397012 -3.549621 0.000000 0.000000 0.000000 -33.476560 18.290673 1.953085 95.021075 63.336989 -67.264615 12.564619 -31.482154 34.725968 -11.850832 11.282140 -41.665813 0.000000 0.000000 0.000000 0.000000 0.000000 0.000000 -72.287324 38.245061 46.513579 -28.542386 -37.543378 -41.064813 5.965987 0.913248 -9.397639 -4.068263 -25.979335 -10.639199 0.000000 0.000000 0.000000 0.000000 0.000000 0.000000 1.199557 8.184529 -36.454581 -18.740268 -0.729812 -3.076563 12.144113 12.875971 3.134461 0.000000 0.000000 0.000000 -8.111213 9.524357 -35.506993 -1.955300 2.339555 -0.632081 10.035234 -16.427323 5.369279 0.000000 0.000000 0.000000
-17.070438 76.312413 344.558357 9.461404 -3.734197 38.127828 0.117509 -0.783810 -37.468293 0.484432 -0.179239 0.494001 18.614838 -9.529522 -3.497662 0.000000 0.000000 0.000000 -33.075320 17.057367 1.584430 93.516254 64.335880 -67.973369 17.267922 -34.520496 37.689753 -33.327546 5.172526 -28.080128 0.000000 0.000000 0.000000 0.000000 0.000000 0.000000 -71.048426 33.677852 41.097183 -21.241467 -36.955492 -34.231371 0.943605 6.279354 -6.702521 0.806124 -31.620386 -13.367173 0.000000 0.000000 0.000000 0.000000 0.000000 0.000000 1.105926 8.493963 -38.119582 -18.688154 -1.025462 -3.179043 7.670568 15.506164 6.392912 0.000000 0.000000 0.000000 -8.693060 9.297046 -37.264085 -1.919663 2.921730 -0.399324 8.423056 -11.963080 4.105302 0.000000 0.000000 0.000000
-16.933291 76.172802 344.386640 9.836776 -3.629332 38.171463 0.101017 -0.996711 -37.479512 0.570313 -0.047578 0.505231 18.190753 -9.497092 -3.476350 0.000000 0.000000 0.000000 -33.573122 15.875605 1.342920 93.721019 65.166281 -69.165795 15.683131 -40.970908 37.181755 -33.968000 -0.679978 -20.926349 0.000000 0.000000 0.000000 0.000000 0.000000 0.000000 -69.591233 31.205779 37.478432 -18.884043 -36.170748 -30.989849 -1.403811 9.692056 -4.855844 3.404008 -35.591896 -15.105501 0.000000 0.000000 0.000000 0.000000 0.000000 0.000000 0.607922 8.423362 -38.093064 -18.894490 -0.798190 -3.188902 5.078882 16.495780 8.449687 0.000000 0.000000 0.000000 -9.240114 9.356009 -37.285253 -1.966590 2.972204 -0.391000 10.176084 -16.185489 6.517811 0.000000 0.000000 0.000000
-16.798179 76.093969 344.221132 10.232294 -3.548602 39.253964 0.040062 -1.171432 -38.527446 0.594029 0.041119 0.516840 17.568160 -9.424327 -3.494049 0.000000 0.000000 0.000000 -33.346931 15.326666 1.168996 94.129800 65.461726 -70.684938 13.609035 -43.614639 36.056496 -36.098799 -8.392868 -16.642043 0.000000 0.000000 0.000000 0.000000 0.000000 0.000000 -68.761174 27.769694 33.642378 -14.467293 -34.225502 -26.055900 -2.892875 7.824936 -5.142475 5.165602 -33.261630 -14.176427 0.000000 0.000000 0.000000 0.000000 0.000000 0.000000 0.392044 8.594735 -39.161793 -19.125399 -0.737775 -3.228968 4.556663 16.388584 9.037226 0.000000 0.000000 0.000000 -9.797239 9.363782 -38.410166 -1.962705 3.288741 -0.263170 9.029796 -13.083262 6.816821 0.000000 0.000000 0.000000
-16.720095 75.965956 344.141755 10.514444 -3.574164 40.507214 -0.003078 -1.248711 -39.752564 0.547805 0.070750 0.525670 17.423677 -9.431730 -3.530784 0.000000 0.000000 0.000000 -33.559587 15.597753 1.221950 95.692455 64.923670 -71.796040 6.677035 -48.512714 31.986481 -29.759812 -9.192619 -15.866785 0.000000 0.000000 0.000000 0.000000 0.000000 0.000000 -67.746865 24.570101 30.145595 -10.551123 -31.708686 -21.393393 -4.611362 7.173198 -5.012219 7.629602 -31.170462 -13.003169 0.000000 0.000000 0.000000 0.000000 0.000000 0.000000 0.528739 8.856171 -40.442384 -19.440698 -0.778024 -3.290333 4.822867 15.430835 9.029158 0.000000 0.000000 0.000000 -10.135023 9.436416 -39.705090 -1.894624 3.635831 -0.114646 8.446680 -11.916931 8.635495 0.000000 0.000000 0.000000
-16.627152 75.831153 344.164241 10.743052 -3.735556 42.087428 -0.059773 -1.195377 -41.304725 0.411414 0.070564 0.529024 17.787755 -9.338401 -3.565748 0.000000 0.000000 0.000000 -33.661367 15.996333 1.336158 95.207296 64.771890 -71.089903 10.183639 -46.129272 34.304804 -31.842262 -8.366839 -16.656690 0.000000 0.000000 0.000000 0.000000 0.000000 0.000000 -67.217496 21.919378 27.620012 -7.394099 -28.930777 -17.567985 -3.764326 3.288578 -6.682359 8.020338 -25.926788 -10.809798 0.000000 0.000000 0.000000 0.000000 0.000000 0.000000 0.925966 9.490272 -42.116906 -19.499190 -1.077627 -3.366095 7.430918 14.195989 7.260159 0.000000 0.000000 0.000000 -10.114229 9.738792 -41.288220 -2.005409 3.884227 -0.028829 12.100029 -19.935054 12.732097 0.000000 0.000000 0.000000
-16.620108 75.625860 344.243539 10.820234 -3.994019 43.013135 -0.050696 -1.158853 -42.205089 0.354667 0.008410 0.537979 18.302348 -9.013115 -3.641006 0.000000 0.000000 0.000000 -32.473164 15.339969 1.201450 97.503094 62.568412 -73.041946 16.828521 -32.066545 37.175499 -40.019449 -7.679191 -23.425476 0.000000 0.000000 0.000000 0.000000 0.000000 0.000000 -65.713266 20.272757 25.507667 -7.465345 -26.082608 -14.967238 -0.932203 3.750646 -7.135076 8.259502 -27.081057 -10.552199 0.000000 0.000000 0.000000 0.000000 0.000000 0.000000 1.435552 9.805207 -43.103171 -19.756059 -1.161334 -3.408630 10.861991 11.541006 4.942741 0.000000 0.000000 0.000000 -9.597152 9.902824 -42.232825 -2.477553 3.876705 -0.030571 13.707074 -22.645636 14.986406 0.000000 0.000000 0.000000
-16.603485 75.305212 344.320774 10.878742 -4.225976 43.237567 -0.038858 -1.106661 -42.408004 0.372541 -0.077106 0.550236 18.643338 -8.659285 -3.724028 0.000000 0.000000 0.000000 -31.036864 13.832990 0.930398 99.356319 63.276546 -77.547354 20.864206 -24.570809 38.416011 -21.771255 -3.475596 -33.604538 0.000000 0.000000 0.000000 0.000000 0.000000 0.000000 -63.378822 20.026183 24.152448 -11.095061 -23.776800 -13.875705 0.766637 4.841768 -7.415492 7.678920 -31.288201 -12.361083 0.000000 0.000000 0.000000 0.000000 0.000000 0.000000 1.616059 9.940287 -43.325615 -19.862444 -1.019897 -3.363474 10.300750 13.869889 5.341073 0.000000 0.000000 0.000000 -9.270205 10.002334 -42.459138 -2.698954 3.937961 -0.004637 17.382377 -28.853326 18.184185 0.000000 0.000000 0.000000
-16.678537 75.207189 344.351313 10.820837 -4.354329 43.267643 0.010870 -1.120189 -42.432652 0.388952 -0.112006 0.554387 19.673109 -8.883254 -3.754535 0.000000 0.000000 0.000000 -29.449568 11.462403 0.546211 105.695195 66.466451 -88.984750 24.611787 -22.395527 41.177420 4.240096 -5.546681 -40.113071 0.000000 0.000000 0.000000 0.000000 0.000000 0.000000 -60.098668 21.892862 23.965093 -18.407215 -24.055783 -15.911462 0.041921 2.529403 -8.537156 3.878797 -28.127476 -13.094162 0.000000 0.000000 0.000000 0.000000 0.000000 0.000000 1.614327 9.818664 -43.314529 -19.796861 -0.732773 -3.247439 11.688709 13.091394 4.270514 0.000000 0.000000 0.000000 -8.539995 9.831130 -42.550835 -3.362665 3.652441 -0.080147 16.029993 -26.241845 18.584265 0.000000 0.000000 0.000000
-16.845418 75.290708 344.346934 10.655413 -4.453527 43.048911 0.075880 -1.130350 -42.220407 0.319741 -0.105483 0.546721 19.845500 -8.833763 -3.775627 0.000000 0.000000 0.000000 -28.287613 9.379383 0.268863 111.136983 71.891007 -100.213549 35.754148 -21.278223 47.583010 20.219731 -5.412503 -44.346827 0.000000 0.000000 0.000000 0.000000 0.000000 0.000000 -53.802097 25.337831 23.318607 -31.544066 -24.510666 -20.107515 1.334500 0.687917 -10.065826 0.799977 -22.726243 -11.747834 0.000000 0.000000 0.000000 0.000000 0.000000 0.000000 1.518500 9.547492 -43.031669 -19.586310 -0.386935 -3.097757 12.647643 10.977502 3.441507 0.000000 0.000000 0.000000 -8.453551 9.629441 -42.385678 -3.069839 3.994819 0.075612 14.694867 -24.984143 17.078629 0.000000 0.000000 0.000000
-17.082204 75.506971 344.309182 10.380002 -4.485758 42.448172 0.121307 -1.070135 -41.643629 0.200500 -0.066662 0.526044 19.633610 -8.797479 -3.756757 0.000000 0.000000 0.000000 -26.981640 8.016340 0.074486 105.804877 77.519855 -99.407659 44.105621 -22.252793 50.369302 31.108937 -5.458672 -46.081539 0.000000 0.000000 0.000000 0.000000 0.000000 0.000000 -44.056815 28.917568 20.824824 -47.293339 -23.190055 -23.613243 1.591497 0.640612 -10.966161 -0.560222 -18.474001 -10.260787 0.000000 0.000000 0.000000 0.000000 0.000000 0.000000 1.355717 9.004094 -42.340221 -19.448060 0.082834 -2.933985 11.832542 6.984838 3.862530 0.000000 0.000000 0.000000 -8.511171 9.353691 -41.836970 -2.497130 4.415405 0.255688 13.010945 -23.670457 11.931861 0.000000 0.000000 0.000000
